# ProBuilder 5.1.1
# https://unity3d.com/unity/features/worldbuilding/probuilder
# 12/22/2023 4:54:53 PM

mtllib ./Stairs_(1).mtl
o Stairs (1)

g Stairs (1)
v -8.177282 2.384186E-07 6.837228
v -8.177282 2.384186E-07 9.543182
v -8.177282 0.8655976 6.837228
v -8.177282 0.8655976 9.543182
v -4.91047 0.8655976 8.145617
v -6.763068 0.8655976 6.232218
v -6.763068 1.731195 6.232218
v -4.91047 1.731195 8.145617
v -3.557312 1.731195 4.771592
v -6.177282 1.731195 4.771592
v -6.177282 2.596792 4.771592
v -3.557312 2.596792 4.771592
v -4.910469 2.596792 1.397567
v -6.763068 2.596792 3.310965
v -6.763068 3.46239 3.310965
v -4.910469 3.46239 1.397567
v -8.17728 3.46239 0
v -8.177281 3.46239 2.705954
v -6.763068 2.384186E-07 6.232218
v -6.177282 2.384186E-07 4.771592
v -6.763068 2.384186E-07 3.310965
v -8.177281 2.384186E-07 2.705954
v -4.91047 2.384186E-07 8.145617
v -3.557312 2.384186E-07 4.771592
v -4.910469 2.384186E-07 1.397567
v -8.17728 2.384186E-07 0

vt 6.837228 2.384186E-07
vt 9.543182 2.384186E-07
vt 6.837228 0.8655976
vt 9.543182 0.8655976
vt 8.454945 7.542268
vt 7.419421 10.04224
vt 4.936105 7.500906
vt 7.379909 6.442115
vt -0.2269844 0.8655976
vt 2.436325 0.8655976
vt -0.2269844 1.731195
vt 2.436325 1.731195
vt 5.982738 7.852836
vt 3.50603 6.873485
vt 6.105391 4.332146
vt 7.10801 6.752682
vt -6.177282 1.731195
vt -3.557312 1.731195
vt -6.177282 2.596792
vt -3.557312 2.596792
vt 3.212369 3.378658
vt 4.214989 0.9581218
vt 6.81435 3.49946
vt 4.337642 4.478812
vt -7.083086 2.596792
vt -4.419777 2.596792
vt -7.083086 3.46239
vt -4.419777 3.46239
vt 5.707842 0.2098975
vt 8.151646 1.268688
vt 5.668331 3.810026
vt 4.632807 1.310051
vt 10.20744 2.384186E-07
vt 8.66925 2.384186E-07
vt 10.20744 0.8655976
vt 8.66925 0.8655976
vt 8.301799 2.384186E-07
vt 6.728086 2.384186E-07
vt 8.301799 0.8655976
vt 6.728086 1.731195
vt 8.301799 1.731195
vt 2.129326 2.384186E-07
vt 0.5556121 2.384186E-07
vt 2.129326 1.731195
vt 0.5556121 2.596792
vt 2.129326 2.596792
vt -4.915671 2.384186E-07
vt -6.453865 2.384186E-07
vt -4.915671 2.596792
vt -6.453865 3.46239
vt -4.915671 3.46239
vt -11.27177 2.384186E-07
vt -7.718562 2.384186E-07
vt -11.27177 0.8655976
vt -7.718562 0.8655976
vt -9.388104 2.384186E-07
vt -5.752849 2.384186E-07
vt -9.388104 0.8655976
vt -5.752849 1.731195
vt -9.388104 1.731195
vt -3.10456 2.384186E-07
vt 0.5306945 2.384186E-07
vt -3.10456 1.731195
vt 0.5306945 2.596792
vt -3.10456 2.596792
vt 3.964981 2.384186E-07
vt 7.518184 2.384186E-07
vt 3.964981 2.596792
vt 7.518184 3.46239
vt 3.964981 3.46239
vt 2.705957 2.384186E-07
vt 2.881964E-06 2.384186E-07
vt 2.705957 3.46239
vt 2.881964E-06 3.46239

vn -1 0 0
vn 0 1 0
vn -0.7184291 0 0.6956002
vn 0 0 1
vn 0.7184289 0 0.6956005
vn -0.3933254 0 -0.9193993
vn -0.7151332 0 -0.6989881
vn -0.8039862 0 -0.5946479
vn -0.9281398 0 -0.3722319
vn -0.7151335 0 0.6989878
vn -0.9281399 0 0.3722315
vn -0.3933257 0 0.9193992
vn 0.3933256 0 0.9193993
vn 0.7151333 0 0.6989881
vn 0.8039862 0 0.5946479
vn 1 0 9.63292E-08
vn 0.9281397 0 0.3722319
vn 0.7151335 0 -0.6989878
vn 0.9281398 0 -0.3722317
vn 0.393326 0 -0.919399

usemtl ProBuilderDefault
f 7/41/9 10/40/1 6/39/8
f 11/46/11 14/45/10 10/44/1
f 15/51/12 18/50/12 14/49/10
f 5/58/15 9/59/16 8/60/17
f 9/63/16 13/64/18 12/65/19
f 13/68/18 17/69/20 16/70/20
f 2/2/1 4/4/1 3/3/1
f 3/3/1 1/1/1 2/2/1
f 4/6/2 5/7/2 6/8/2
f 6/8/2 3/5/2 4/6/2
f 5/10/3 8/12/3 7/11/3
f 7/11/3 6/9/3 5/10/3
f 8/14/2 9/15/2 10/16/2
f 10/16/2 7/13/2 8/14/2
f 9/18/4 12/20/4 11/19/4
f 11/19/4 10/17/4 9/18/4
f 12/22/2 13/23/2 14/24/2
f 14/24/2 11/21/2 12/22/2
f 13/26/5 16/28/5 15/27/5
f 15/27/5 14/25/5 13/26/5
f 16/30/2 17/31/2 18/32/2
f 18/32/2 15/29/2 16/30/2
f 3/35/6 6/36/8 19/34/7
f 19/34/7 1/33/6 3/35/6
f 6/39/8 10/40/1 20/38/1
f 20/38/1 19/37/7 6/39/8
f 10/44/1 14/45/10 21/43/10
f 21/43/10 20/42/1 10/44/1
f 14/49/10 18/50/12 22/48/12
f 22/48/12 21/47/10 14/49/10
f 23/53/14 5/55/15 4/54/13
f 4/54/13 2/52/13 23/53/14
f 24/57/16 9/59/16 5/58/15
f 5/58/15 23/56/14 24/57/16
f 25/62/18 13/64/18 9/63/16
f 9/63/16 24/61/16 25/62/18
f 26/67/20 17/69/20 13/68/18
f 13/68/18 25/66/18 26/67/20
f 18/73/1 17/74/1 26/72/1
f 26/72/1 22/71/1 18/73/1

