# ProBuilder 5.1.1
# https://unity3d.com/unity/features/worldbuilding/probuilder
# 12/22/2023 4:54:53 PM

mtllib ./Cube.mtl
o Cube

g Cube
v 3.977085 0 44.43836
v -14.07325 0 44.43836
v 3.977085 0.3946946 44.43836
v -14.07325 0.3946946 44.43836
v -14.07325 0 0
v -14.07325 0.3946946 0
v 3.977085 0 -9.536743E-07
v 3.977085 0.3946946 -9.536743E-07

vt 3.977085 0
vt -14.07325 0
vt 3.977085 0.3946946
vt -14.07325 0.3946946
vt 44.43836 0
vt 0 0
vt 44.43836 0.3946946
vt 0 0.3946946
vt 14.07325 0
vt -3.977085 0
vt 14.07325 0.3946946
vt -3.977085 0.3946946
vt -44.43836 0
vt -44.43836 0.3946946
vt -3.977085 44.43836
vt 14.07325 44.43836
vt 3.977085 44.43836
vt -14.07325 44.43836

vn 0 0 1
vn -1 0 0
vn -5.283416E-08 0 -1
vn 1 0 0
vn 0 1 0
vn 0 -1 0

usemtl ProBuilderDefault
f 3/3/1 4/4/1 2/2/1 1/1/1
f 4/7/2 6/8/2 5/6/2 2/5/2
f 6/11/3 8/12/3 7/10/3 5/9/3
f 8/8/4 3/14/4 1/13/4 7/6/4
f 8/10/5 6/9/5 4/16/5 3/15/5
f 1/17/6 2/18/6 5/2/6 7/1/6

