# ProBuilder 5.1.1
# https://unity3d.com/unity/features/worldbuilding/probuilder
# 12/22/2023 4:55:39 PM

mtllib ./TestMap.mtl
o TestMap

g Cube (6)
v 8.75318 0 -1.913701
v 4.768372E-07 0 -1.913701
v 8.75318 0.4374735 -1.913701
v 4.768372E-07 0.4374735 -1.913701
v 4.768372E-07 0 -2.305267
v 4.768372E-07 0.4374736 -2.305267
v 8.75318 0 -2.305267
v 8.75318 0.4374736 -2.305267
v 7.532718 -2.27 -27.01277
v 7.532718 -2.27 -24.30682
v 7.532718 -0.7921653 -27.01277
v 7.532718 -0.7921653 -24.30682
v 10.79953 -0.7921653 -25.70438
v 8.946932 -0.7921653 -27.61778
v 8.946932 0.6856692 -27.61778
v 10.79953 0.6856692 -25.70438
v 12.15269 0.6856692 -29.07841
v 9.532719 0.6856692 -29.07841
v 9.532719 2.163503 -29.07841
v 12.15269 2.163503 -29.07841
v 10.79953 2.163503 -32.45243
v 8.946932 2.163503 -30.53904
v 8.946932 3.641338 -30.53904
v 10.79953 3.641338 -32.45243
v 7.53272 3.641338 -33.85
v 7.532719 3.641338 -31.14405
v 8.946932 -2.27 -27.61778
v 9.532719 -2.27 -29.07841
v 8.946932 -2.27 -30.53904
v 7.532719 -2.27 -31.14405
v 10.79953 -2.27 -25.70438
v 12.15269 -2.27 -29.07841
v 10.79953 -2.27 -32.45243
v 7.53272 -2.27 -33.85
v 12.1201 -2.31 10.48836
v -5.930236 -2.31 10.48836
v 12.1201 -1.915305 10.48836
v -5.930236 -1.915305 10.48836
v -5.930236 -2.31 -33.95
v -5.930236 -1.915305 -33.95
v 12.1201 -2.31 -33.95
v 12.1201 -1.915305 -33.95
v 7.62 3.15 -24.3096
v -6.453252 3.15 -24.3096
v 7.62 3.544695 -24.3096
v -6.453252 3.544695 -24.3096
v -6.453252 3.15 -33.88
v -6.453252 3.544695 -33.88
v 7.62 3.15 -33.88
v 7.62 3.544695 -33.88
v 8.75318 0 -13.3437
v 4.768372E-07 0 -13.3437
v 8.75318 0.4374735 -13.3437
v 4.768372E-07 0.4374735 -13.3437
v 4.768372E-07 0 -13.73527
v 4.768372E-07 0.4374735 -13.73527
v 8.75318 0 -13.73527
v 8.75318 0.4374735 -13.73527
v 8.75318 -1.63 -10.4637
v 4.768372E-07 -1.63 -10.4637
v 8.75318 -1.192526 -10.4637
v 4.768372E-07 -1.192526 -10.4637
v 4.768372E-07 -1.63 -10.85527
v 4.768372E-07 -1.192526 -10.85527
v 8.75318 -1.63 -10.85527
v 8.75318 -1.192526 -10.85527
v 8.75318 0 -7.543701
v 4.768372E-07 0 -7.543701
v 8.75318 0.4374735 -7.543701
v 4.768372E-07 0.4374735 -7.543701
v 4.768372E-07 0 -7.935268
v 4.768372E-07 0.4374735 -7.935268
v 8.75318 0 -7.935268
v 8.75318 0.4374735 -7.935268
v 8.75318 -1.63 -4.833702
v 4.768372E-07 -1.63 -4.833702
v 8.75318 -1.192526 -4.833702
v 4.768372E-07 -1.192526 -4.833702
v 4.768372E-07 -1.63 -5.225269
v 4.768372E-07 -1.192526 -5.225269
v 8.75318 -1.63 -5.225269
v 8.75318 -1.192526 -5.225269

vt 8.75318 0
vt 4.768372E-07 0
vt 8.75318 0.4374735
vt 4.768372E-07 0.4374735
vt -1.913701 0
vt -2.305267 0
vt -1.913701 0.4374735
vt -2.305267 0.4374736
vt -8.75318 0
vt -8.75318 0.4374736
vt 2.305267 0
vt 1.913701 0
vt 2.305267 0.4374736
vt 1.913701 0.4374735
vt -8.75318 -1.913701
vt -4.768372E-07 -1.913701
vt -8.75318 -2.305267
vt -4.768372E-07 -2.305267
vt 8.75318 -2.305267
vt 8.75318 -1.913701
vt 6.837229 3.576279E-07
vt 9.543182 3.576279E-07
vt 6.837229 0.8655976
vt 9.543182 0.8655976
vt 8.606595 7.896748
vt 7.571071 10.39672
vt 5.087754 7.855387
vt 7.531559 6.796595
vt -0.226984 0.8655977
vt 2.436325 0.8655977
vt -0.226984 1.731195
vt 2.436325 1.731195
vt 6.12957 7.486723
vt 3.652861 6.507372
vt 6.252222 3.966034
vt 7.254842 6.386568
vt -6.177281 1.731195
vt -3.557312 1.731195
vt -6.177281 2.596792
vt -3.557312 2.596792
vt 3.065537 3.012543
vt 4.068157 0.5920067
vt 6.667517 3.133345
vt 4.190809 4.112698
vt -7.083086 2.596792
vt -4.419779 2.596792
vt -7.083086 3.46239
vt -4.419779 3.46239
vt 5.556193 0.564373
vt 7.999997 1.623165
vt 5.516683 4.164505
vt 4.481158 1.664528
vt 10.20744 -0.0007508993
vt 8.668827 4.768372E-07
vt 10.20787 0.8655974
vt 8.66925 0.8663486
vt 8.301798 1.192093E-07
vt 6.728085 1.192093E-07
vt 8.301798 0.8655975
vt 6.728085 1.731195
vt 8.405968 0.8923213
vt 6.623911 1.704471
vt 8.100454 2.083255
vt 2.129326 2.384186E-07
vt 0.5556107 2.384186E-07
vt 2.129326 1.731195
vt 0.5556107 2.596792
vt 2.233496 1.757919
vt 0.4514389 2.570068
vt 1.927982 2.948852
vt -4.915671 1.192093E-07
vt -6.453865 1.192093E-07
vt -4.915671 2.596792
vt -6.453865 3.46239
vt -4.810854 2.623871
vt -6.558681 3.435311
vt -5.116728 3.807836
vt -11.27176 3.576279E-07
vt -7.718559 3.576279E-07
vt -11.27176 0.8655976
vt -7.718559 0.8655976
vt -9.582884 0.02990937
vt -5.901516 -0.5353751
vt -9.411161 1.14824
vt -5.558067 1.701286
vt -9.388105 0.8655977
vt -5.75285 1.731195
vt -9.388105 1.731195
vt -3.429192 0.04984856
vt 0.3820286 -0.535375
vt -3.113661 2.104728
vt 0.8553276 2.546944
vt -3.104561 1.731195
vt 0.530695 2.596792
vt -3.104561 2.596792
vt 3.502316 0.07238579
vt 7.367193 -0.5322886
vt 3.962558 3.014105
vt 7.98085 3.390004
vt 3.964981 2.596792
vt 7.518184 3.46239
vt 3.964981 3.46239
vt 2.705959 1.192093E-07
vt 2.705959 3.46239
vt 3.814697E-06 3.46239
vt 3.977083 2.384186E-07
vt -14.07325 2.384186E-07
vt 3.977083 0.3946948
vt -14.07325 0.3946948
vt 44.43836 2.384186E-07
vt 44.43836 0.3946948
vt 0 0.3946948
vt 14.07325 2.384186E-07
vt -3.977084 2.384186E-07
vt 14.07325 0.3946948
vt -3.977084 0.3946948
vt -44.43836 2.384186E-07
vt -44.43836 0.3946948
vt -3.977083 44.43836
vt 14.07325 44.43836
vt 3.977092 44.43836
vt -14.07325 44.43836
vt 9.570396 0
vt 9.570396 0.3946948
vt -9.570396 0
vt -9.570396 0.3946948
vt 0 9.570396
vt 14.07325 9.570396
vt -14.07325 9.570396

vn 0 0 1
vn -1 0 0
vn 0 0 -1
vn 1 0 0
vn 0 1 1.522211E-07
vn 0 -1 0
vn -0.7184291 0 0.6956002
vn 0.718429 0 0.6956003
vn -0.3933246 0 -0.9193997
vn -0.7151329 0 -0.6989885
vn -0.803986 0 -0.5946482
vn -0.9281397 0 -0.372232
vn -0.7151334 0 0.6989881
vn -0.9281397 0 0.372232
vn -0.3933258 0 0.9193991
vn 0.3933252 0 0.9193994
vn 0.7151332 0 0.6989882
vn 0.8039862 0 0.594648
vn 0.9281398 0 0.3722319
vn 0.7151336 0 -0.6989877
vn 0.9281399 0 -0.3722316
vn 0.3933262 0 -0.919399

usemtl ProBuilderDefault
f 15/63/12 18/62/2 14/61/11
f 19/70/14 22/69/13 18/68/2
f 23/77/15 26/76/15 22/75/13
f 13/86/18 17/87/4 16/88/19
f 17/93/4 21/94/20 20/95/21
f 21/100/20 25/101/22 24/102/22
f 4/4/1 2/2/1 1/1/1
f 1/1/1 3/3/1 4/4/1
f 6/8/2 5/6/2 2/5/2
f 2/5/2 4/7/2 6/8/2
f 8/10/3 7/9/3 5/2/3
f 5/2/3 6/4/3 8/10/3
f 3/14/4 1/12/4 7/11/4
f 7/11/4 8/13/4 3/14/4
f 6/18/5 4/16/5 3/15/5
f 3/15/5 8/17/5 6/18/5
f 2/16/6 5/18/6 7/19/6
f 7/19/6 1/20/6 2/16/6
f 10/22/2 12/24/2 11/23/2
f 11/23/2 9/21/2 10/22/2
f 12/26/5 13/27/5 14/28/5
f 14/28/5 11/25/5 12/26/5
f 13/30/7 16/32/7 15/31/7
f 15/31/7 14/29/7 13/30/7
f 16/34/5 17/35/5 18/36/5
f 18/36/5 15/33/5 16/34/5
f 17/38/1 20/40/1 19/39/1
f 19/39/1 18/37/1 17/38/1
f 20/42/5 21/43/5 22/44/5
f 22/44/5 19/41/5 20/42/5
f 21/46/8 24/48/8 23/47/8
f 23/47/8 22/45/8 21/46/8
f 24/50/5 25/51/5 26/52/5
f 26/52/5 23/49/5 24/50/5
f 11/55/9 14/56/11 27/54/10
f 27/54/10 9/53/9 11/55/9
f 14/59/11 18/60/2 28/58/2
f 28/58/2 27/57/10 14/59/11
f 18/66/2 22/67/13 29/65/13
f 29/65/13 28/64/2 18/66/2
f 22/73/13 26/74/15 30/72/15
f 30/72/15 29/71/13 22/73/13
f 31/79/17 13/81/18 12/80/16
f 12/80/16 10/78/16 31/79/17
f 32/83/4 17/85/4 13/84/18
f 13/84/18 31/82/17 32/83/4
f 33/90/20 21/92/20 17/91/4
f 17/91/4 32/89/4 33/90/20
f 34/97/22 25/99/22 21/98/20
f 21/98/20 33/96/20 34/97/22
f 26/104/2 25/105/2 34/2/2
f 34/2/2 30/103/2 26/104/2
f 38/109/1 36/107/1 35/106/1
f 35/106/1 37/108/1 38/109/1
f 40/112/2 39/2/2 36/110/2
f 36/110/2 38/111/2 40/112/2
f 42/116/3 41/114/3 39/113/3
f 39/113/3 40/115/3 42/116/3
f 37/118/4 35/117/4 41/2/4
f 41/2/4 42/112/4 37/118/4
f 40/113/5 38/120/5 37/119/5
f 37/119/5 42/114/5 40/113/5
f 36/122/6 39/107/6 41/106/6
f 41/106/6 35/121/6 36/122/6
f 46/109/1 44/107/1 43/2/1
f 43/2/1 45/112/1 46/109/1
f 48/112/2 47/2/2 44/123/2
f 44/123/2 46/124/2 48/112/2
f 50/112/3 49/2/3 47/113/3
f 47/113/3 48/115/3 50/112/3
f 45/126/4 43/125/4 49/2/4
f 49/2/4 50/112/4 45/126/4
f 48/113/5 46/128/5 45/127/5
f 45/127/5 50/2/5 48/113/5
f 44/129/6 47/107/6 49/2/6
f 49/2/6 43/127/6 44/129/6
f 54/4/1 52/2/1 51/1/1
f 51/1/1 53/3/1 54/4/1
f 56/8/2 55/6/2 52/5/2
f 52/5/2 54/7/2 56/8/2
f 58/10/3 57/9/3 55/2/3
f 55/2/3 56/4/3 58/10/3
f 53/14/4 51/12/4 57/11/4
f 57/11/4 58/13/4 53/14/4
f 56/18/5 54/16/5 53/15/5
f 53/15/5 58/17/5 56/18/5
f 52/16/6 55/18/6 57/19/6
f 57/19/6 51/20/6 52/16/6
f 62/4/1 60/2/1 59/1/1
f 59/1/1 61/3/1 62/4/1
f 64/8/2 63/6/2 60/5/2
f 60/5/2 62/7/2 64/8/2
f 66/10/3 65/9/3 63/2/3
f 63/2/3 64/4/3 66/10/3
f 61/14/4 59/12/4 65/11/4
f 65/11/4 66/13/4 61/14/4
f 64/18/5 62/16/5 61/15/5
f 61/15/5 66/17/5 64/18/5
f 60/16/6 63/18/6 65/19/6
f 65/19/6 59/20/6 60/16/6
f 70/4/1 68/2/1 67/1/1
f 67/1/1 69/3/1 70/4/1
f 72/8/2 71/6/2 68/5/2
f 68/5/2 70/7/2 72/8/2
f 74/10/3 73/9/3 71/2/3
f 71/2/3 72/4/3 74/10/3
f 69/14/4 67/12/4 73/11/4
f 73/11/4 74/13/4 69/14/4
f 72/18/5 70/16/5 69/15/5
f 69/15/5 74/17/5 72/18/5
f 68/16/6 71/18/6 73/19/6
f 73/19/6 67/20/6 68/16/6
f 78/4/1 76/2/1 75/1/1
f 75/1/1 77/3/1 78/4/1
f 80/8/2 79/6/2 76/5/2
f 76/5/2 78/7/2 80/8/2
f 82/10/3 81/9/3 79/2/3
f 79/2/3 80/4/3 82/10/3
f 77/14/4 75/12/4 81/11/4
f 81/11/4 82/13/4 77/14/4
f 80/18/5 78/16/5 77/15/5
f 77/15/5 82/17/5 80/18/5
f 76/16/6 79/18/6 81/19/6
f 81/19/6 75/20/6 76/16/6

